HIERARCHY
ROOT hip
{
  OFFSET 0 0 0
  CHANNELS 6 Xposition Yposition Zposition Zrotation Yrotation Xrotation
  JOINT abdomen
  {
    OFFSET 0 20.6881 -0.73152
    CHANNELS 3 Zrotation Xrotation Yrotation
    JOINT chest
    {
      OFFSET 0 11.7043 -0.48768
      CHANNELS 3 Zrotation Xrotation Yrotation
      JOINT neck
      {
        OFFSET 0 22.1894 -2.19456
        CHANNELS 3 Zrotation Xrotation Yrotation
        JOINT head
        {
          OFFSET -0.24384 7.07133 1.2192
          CHANNELS 3 Zrotation Xrotation Yrotation
          JOINT leftEye
          {
            OFFSET 4.14528 8.04674 8.04672
            CHANNELS 3 Zrotation Xrotation Yrotation
            End Site
            {
              OFFSET 1 0 0
            }
          }
          JOINT rightEye
          {
            OFFSET -3.6576 8.04674 8.04672
            CHANNELS 3 Zrotation Xrotation Yrotation
            End Site
            {
              OFFSET 1 0 0
            }
          }
        }
      }
      JOINT rCollar
      {
        OFFSET -2.68224 19.2634 -4.8768
        CHANNELS 3 Zrotation Xrotation Yrotation
        JOINT rShldr
        {
          OFFSET -8.77824 -1.95073 1.46304
          CHANNELS 3 Zrotation Xrotation Yrotation
          JOINT rForeArm
          {
            OFFSET -28.1742 -1.7115 0.48768
            CHANNELS 3 Zrotation Xrotation Yrotation
            JOINT rHand
            {
              OFFSET -22.5879 0.773209 7.07136
              CHANNELS 3 Zrotation Xrotation Yrotation
              JOINT rThumb1
              {
                OFFSET -1.2192 -0.487915 3.41376
                CHANNELS 3 Zrotation Xrotation Yrotation
                JOINT rThumb2
                {
                  OFFSET -3.37035 -0.52449 3.41376
                  CHANNELS 3 Zrotation Xrotation Yrotation
                  End Site
                  {
                    OFFSET -1.78271 -1.18214 1.43049
                  }
                }
              }
              JOINT rIndex1
              {
                OFFSET -7.75947 0.938293 5.60832
                CHANNELS 3 Zrotation Xrotation Yrotation
                JOINT rIndex2
                {
                  OFFSET -2.54057 -0.884171 1.56538
                  CHANNELS 3 Zrotation Xrotation Yrotation
                  End Site
                  {
                    OFFSET -1.62519 -0.234802 1.16502
                  }
                }
              }
              JOINT rMid1
              {
                OFFSET -8.24714 1.18213 3.41376
                CHANNELS 3 Zrotation Xrotation Yrotation
                JOINT rMid2
                {
                  OFFSET -3.10165 -0.590103 1.0647
                  CHANNELS 3 Zrotation Xrotation Yrotation
                  End Site
                  {
                    OFFSET -2.48547 -0.328903 0.83742
                  }
                }
              }
              JOINT rRing1
              {
                OFFSET -8.82822 0.546677 1.51678
                CHANNELS 3 Zrotation Xrotation Yrotation
                JOINT rRing2
                {
                  OFFSET -2.60934 -0.819778 -0.0198488
                  CHANNELS 3 Zrotation Xrotation Yrotation
                  End Site
                  {
                    OFFSET -2.33842 -0.294052 0.168128
                  }
                }
              }
              JOINT rPinky1
              {
                OFFSET -8.27202 -0.0477905 -0.4584
                CHANNELS 3 Zrotation Xrotation Yrotation
                JOINT rPinky2
                {
                  OFFSET -1.82734 -0.647385 -0.700984
                  CHANNELS 3 Zrotation Xrotation Yrotation
                  End Site
                  {
                    OFFSET -1.69225 -0.51767 -0.607171
                  }
                }
              }
            }
          }
        }
      }
      JOINT lCollar
      {
        OFFSET 2.68224 19.2634 -4.8768
        CHANNELS 3 Zrotation Xrotation Yrotation
        JOINT lShldr
        {
          OFFSET 8.77824 -1.95073 1.46304
          CHANNELS 3 Zrotation Xrotation Yrotation
          JOINT lForeArm
          {
            OFFSET 28.1742 -1.7115 0.48768
            CHANNELS 3 Zrotation Xrotation Yrotation
            JOINT lHand
            {
              OFFSET 22.5879 0.773209 7.07136
              CHANNELS 3 Zrotation Xrotation Yrotation
              JOINT lThumb1
              {
                OFFSET 1.2192 -0.487915 3.41376
                CHANNELS 3 Zrotation Xrotation Yrotation
                JOINT lThumb2
                {
                  OFFSET 3.37035 -0.52449 3.41376
                  CHANNELS 3 Zrotation Xrotation Yrotation
                  End Site
                  {
                    OFFSET 1.78271 -1.18214 1.43049
                  }
                }
              }
              JOINT lIndex1
              {
                OFFSET 7.75947 0.938293 5.60832
                CHANNELS 3 Zrotation Xrotation Yrotation
                JOINT lIndex2
                {
                  OFFSET 2.54057 -0.884171 1.56538
                  CHANNELS 3 Zrotation Xrotation Yrotation
                  End Site
                  {
                    OFFSET 1.62519 -0.234802 1.16502
                  }
                }
              }
              JOINT lMid1
              {
                OFFSET 8.24714 1.18213 3.41376
                CHANNELS 3 Zrotation Xrotation Yrotation
                JOINT lMid2
                {
                  OFFSET 3.10165 -0.590103 1.0647
                  CHANNELS 3 Zrotation Xrotation Yrotation
                  End Site
                  {
                    OFFSET 2.48547 -0.328903 0.83742
                  }
                }
              }
              JOINT lRing1
              {
                OFFSET 8.82822 0.546677 1.51678
                CHANNELS 3 Zrotation Xrotation Yrotation
                JOINT lRing2
                {
                  OFFSET 2.60934 -0.819778 -0.0198488
                  CHANNELS 3 Zrotation Xrotation Yrotation
                  End Site
                  {
                    OFFSET 2.33842 -0.294052 0.168128
                  }
                }
              }
              JOINT lPinky1
              {
                OFFSET 8.27202 -0.0477905 -0.4584
                CHANNELS 3 Zrotation Xrotation Yrotation
                JOINT lPinky2
                {
                  OFFSET 1.82734 -0.647385 -0.700984
                  CHANNELS 3 Zrotation Xrotation Yrotation
                  End Site
                  {
                    OFFSET 1.69225 -0.51767 -0.607171
                  }
                }
              }
            }
          }
        }
      }
    }
  }
  JOINT rButtock
  {
    OFFSET -8.77824 4.35084 1.2192
    CHANNELS 3 Zrotation Xrotation Yrotation
    JOINT rThigh
    {
      OFFSET 0 -1.70687 -2.19456
      CHANNELS 3 Zrotation Xrotation Yrotation
      JOINT rShin
      {
        OFFSET 0 -36.8199 0.73152
        CHANNELS 3 Zrotation Xrotation Yrotation
        JOINT rFoot
        {
          OFFSET 0.73152 -45.1104 -5.12064
          CHANNELS 3 Zrotation Xrotation Yrotation
          End Site
          {
            OFFSET -1.1221 -3.69964 12.103
          }
        }
      }
    }
  }
  JOINT lButtock
  {
    OFFSET 8.77824 4.35084 1.2192
    CHANNELS 3 Zrotation Xrotation Yrotation
    JOINT lThigh
    {
      OFFSET 0 -1.70687 -2.19456
      CHANNELS 3 Zrotation Xrotation Yrotation
      JOINT lShin
      {
        OFFSET 0 -36.8199 0.73152
        CHANNELS 3 Zrotation Xrotation Yrotation
        JOINT lFoot
        {
          OFFSET -0.73152 -45.1104 -5.12064
          CHANNELS 3 Zrotation Xrotation Yrotation
          End Site
          {
            OFFSET 1.1221 -3.69964 12.103
          }
        }
      }
    }
  }
}
MOTION
Frames:	4
Frame Time:	0.00833333
-0.026425906 0.818796 -0.13003667 -5.5653787 -15.323115 10.984432 8.295702 11.052652 10.083977 -1.0634502 -8.3565 3.0411658 -4.1985226 13.614553 -1.1109182 5.347025 -24.316639 0.47607717 0.17189704 -0.32100677 0.22303352 0.07554976 -0.33804664 0.6373612 0.014034757 0.048727527 -0.09959728 34.529797 39.585712 40.618984 -21.615227 -15.044143 40.93678 2.995113 43.765976 13.74742 -0.005272799 -0.16550332 0.11800794 0.045373637 -0.019048009 0.20186308 -0.106166855 -0.005430907 -0.10540918 7.6555285 5.5722713 0.31226578 -0.17347495 -0.4535383 0.02198651 2.5615463 0.61601704 0.008208873 -0.20327592 0.17559415 -0.30846813 10.429386 0.65536064 -0.27572688 0.29020512 -0.14033803 -0.11071576 2.2297347 -0.47544646 -0.22701797 -0.029699234 0.13974652 0.36610448 -58.356873 28.136814 -36.539524 24.52493 -27.931278 -63.44536 6.249085 -42.58178 16.76885 -0.16688542 -0.13249715 -0.41369542 0.12234288 -0.13637374 0.03576319 -0.20526423 0.16603667 0.027998865 -7.6587214 5.411389 -0.49887484 0.18581454 -0.23227029 -0.14367078 -2.5232954 0.7603154 -0.39189985 -0.3210755 -0.22233139 -0.20652519 -10.313927 0.5995835 -0.46005479 -0.5416312 0.046343897 0.16322567 -2.3627641 -0.6105507 0.06975405 -0.069224924 0.114392325 0.14163388 6.2336216 0.90641236 -1.0895131 -0.64083683 45.840397 1.9128338 -14.787746 -18.122559 -38.082325 -0.12932995 0.060262755 -0.22877568 63.666443 -67.51061 54.742332 3.9574132 76.65907 -4.2996798 -1.5638455 1.0851879 -4.360314
-0.25645328 0.610806 0.43679142 -15.859934 -14.260971 2.9614067 10.679205 8.826668 9.515293 -1.5575099 -7.48185 2.3806176 -2.2136204 11.986167 -0.76945907 4.9714336 -20.665861 -0.26034856 -0.31324333 0.05899213 0.12122806 -0.051643725 -0.42302474 0.20236665 -0.23250304 -0.016996978 0.07954662 41.906216 48.71899 41.293503 -20.92464 -12.196847 34.974285 -7.021639 55.69623 9.217194 -0.056813404 0.11844257 -0.10517658 0.08590739 0.4134515 -0.76773715 -0.07434138 0.009707352 -0.1764242 7.7379866 5.916317 0.40387642 0.030688144 -0.33806297 0.31338662 2.8780887 0.7218704 -0.02985006 0.7700278 0.61068857 0.21480612 10.17096 0.96505606 -0.31169215 0.4935057 0.062004548 0.61016506 1.8921221 -0.44221035 0.032093883 0.26783636 -0.07972511 0.8315084 -73.22815 21.128841 -52.308125 24.440853 -23.142393 -56.029114 8.857812 -56.483116 9.422185 -0.2284761 0.118339635 0.25925538 0.22877727 -0.8824266 -0.19867077 0.25393388 0.26737595 -0.05850078 -8.037783 6.096694 -0.35563728 0.15362471 -0.31704873 0.15634099 -2.4905753 0.93291223 -0.044950433 -0.7460533 0.46630087 -0.34176666 -10.1700325 0.6777305 0.20757258 -0.37079117 0.2217805 -0.28779525 -2.302003 -0.6114781 -0.11791542 -0.046185363 -0.16228849 -0.099731 6.0328617 2.5308716 -12.810367 -0.24480176 46.772312 2.08757 -17.974716 -17.59521 -37.649746 0.112112746 0.12464491 0.2604844 59.446693 -61.321953 54.255894 3.890049 70.60458 -2.9767084 -1.2967116 3.3073256 -2.6602893
-0.37614575 0.38968122 0.562818 -17.791168 -13.584645 3.4578328 13.435547 6.8358407 8.988584 -0.60358816 -7.6708007 1.9621125 -2.3707983 11.88971 0.14992961 5.496882 -18.466211 0.80767685 -0.42737442 -0.104825765 -0.011287634 0.29665482 -0.37080178 0.09477506 0.18772571 0.07702329 0.054673526 43.526028 50.185112 44.73987 -20.092026 -11.631405 36.973095 -6.7383046 56.046272 8.880856 -0.07052671 0.25326622 -0.27811804 -0.1547376 0.26098993 0.03838961 -0.25433135 0.1838777 -0.042141464 7.3631306 5.418981 0.4414318 0.7046141 -0.24399824 0.1353383 2.9797988 0.9685105 -0.20594636 -0.15115528 0.345135 0.3826326 10.643328 0.8050973 -0.021752657 0.038058985 0.2151185 -0.0349076 1.7760702 -0.53006244 0.2834269 0.21352102 -0.19600235 0.5276017 -81.41352 22.465273 -61.32832 24.28134 -21.94486 -56.07191 6.8077383 -57.468014 10.52072 -0.17941721 0.5807746 0.3531526 -0.12392684 0.052703977 -0.49821484 0.7598812 0.28352508 -0.12778856 -7.767499 5.9186635 -0.2926265 0.009900466 -0.0709758 -0.7273211 -2.8221147 1.1543607 0.17575309 -0.1730516 0.11889304 -0.5596024 -10.512318 0.63615227 0.18569101 -0.16965811 0.26980814 -0.122535825 -2.4067178 -0.6290673 0.13830535 -0.6361494 -0.21722497 -0.2544669 5.0607805 0.7740796 -16.166716 -2.2099435 48.939823 3.2296007 -19.208529 -16.12755 -38.597126 0.24744631 0.5516937 0.55812865 61.53479 -59.024715 56.251915 1.769682 70.43372 -1.2459518 -0.3905677 0.7281752 -2.463233
-0.40504003 0.4111222 0.7293178 -14.693488 -14.169621 5.965574 14.611726 5.2379775 8.550264 0.2839637 -7.2987304 1.5797404 -2.7474627 11.783124 0.21880727 5.8235116 -17.039606 1.0750967 -0.30515292 0.0068286145 0.06472298 0.133222 -0.41993922 0.22789453 0.42069578 0.16520722 -0.1783626 42.991776 49.890335 46.307575 -18.801205 -10.899534 35.70527 -5.9004226 53.085983 9.323391 -0.18847287 0.25609863 -0.1391206 -0.44352952 -0.05816119 0.36682355 -0.16859382 0.34628177 0.0070819985 7.384952 5.230196 0.33746362 0.64280754 -0.18969579 0.1593193 3.05084 1.177646 -0.17855528 -0.52663213 0.076468684 0.2645362 10.773455 0.7094268 -0.08350541 -0.13951322 0.17645551 -0.2888268 1.9228725 -0.6471645 0.30617687 0.18750098 0.078910075 0.23942858 -80.72918 22.833334 -63.157116 24.354101 -21.953049 -56.212612 6.938449 -56.783657 12.967769 0.029886771 0.31929117 0.29380545 -0.19704476 0.551566 -0.22406797 0.38798526 0.1825908 -0.13738541 -7.3336396 5.49186 -0.13533491 -0.14028323 -0.1420769 -0.89743024 -2.8231573 0.90975213 0.26212156 0.004376857 -0.029486459 -0.53351915 -10.571824 0.7822692 0.10060617 -0.02162722 -0.10618115 0.25653046 -2.4459329 -0.49184263 0.51843536 -0.6996564 0.04232796 -0.26388505 5.033038 0.24225868 -17.263819 -1.2726929 49.02372 2.6458964 -18.712019 -15.533775 -38.315975 0.24479268 0.67663085 0.4018134 62.65371 -58.790066 56.19014 2.09388 71.509766 -2.560133 -0.24835762 -0.7626616 -3.4306924
